<?xml version="1.0" standalone="no"?><!DOCTYPE svg PUBLIC "-//W3C//DTD SVG 1.1//EN" "http://www.w3.org/Graphics/SVG/1.1/DTD/svg11.dtd"><svg t="1678621973653" class="icon" viewBox="0 0 1024 1024" version="1.1" xmlns="http://www.w3.org/2000/svg" p-id="6844" xmlns:xlink="http://www.w3.org/1999/xlink" width="32" height="32"><path d="M102.4 896a409.6 51.2 0 1 0 819.2 0 409.6 51.2 0 1 0-819.2 0Z" fill="#d81e06" opacity=".1" p-id="6845"></path><path d="M101.376 817.152c0 8.704 6.656 15.36 15.36 15.36s15.36-6.656 15.36-15.36-6.656-15.36-15.36-15.36c-8.192 0-15.36 7.168-15.36 15.36zM921.6 842.752c-15.36 4.096-18.944 7.168-23.04 23.04-4.096-15.36-7.168-18.944-23.04-23.04 15.36-4.096 18.944-7.68 23.04-23.04 4.096 15.36 7.168 18.944 23.04 23.04zM209.92 351.744c-19.456 5.12-23.552 9.216-29.184 29.184-5.12-19.456-9.216-23.552-29.184-29.184 19.456-5.12 23.552-9.216 29.184-29.184 5.632 19.456 9.728 23.552 29.184 29.184zM826.88 270.848c-15.36 4.096-18.432 7.168-22.528 22.528-4.096-15.36-7.168-18.432-22.528-22.528 15.36-4.096 18.432-7.168 22.528-22.528 3.584 15.36 7.168 18.432 22.528 22.528zM814.08 212.48c-39.936 10.24-48.128 18.944-58.88 58.88-10.24-39.936-18.944-48.128-58.88-58.88 39.936-10.24 48.128-18.944 58.88-58.88 10.24 39.424 18.944 48.128 58.88 58.88z" fill="#d81e06" opacity=".5" p-id="6846"></path><path d="M248.32 140.288v4.608l37.376 35.84 145.92-71.168-131.584 84.48V235.52l20.992-20.48v-0.512l0.512 0.512 20.992 20.48L455.68 97.792v-5.12z" fill="#d81e06" opacity=".2" p-id="6847"></path><path d="M906.752 443.392c-11.776-44.032-69.632-70.144-162.816-73.728C675.84 276.48 555.52 229.376 437.248 261.12s-198.144 133.12-209.92 247.808c-78.848 49.664-115.712 101.376-103.424 145.408 12.288 46.592 74.752 72.704 175.616 74.24 70.144 77.312 179.712 114.176 287.232 84.992 107.52-29.184 184.32-115.712 205.824-218.112 86.016-51.712 126.464-105.472 114.176-152.064zM446.976 295.936c133.12-35.84 270.848 43.52 307.2 176.64 9.216 33.792 10.752 68.096 6.144 100.864-58.88 33.28-135.168 63.488-215.04 84.992-80.384 21.504-161.28 33.792-228.864 34.816-20.48-26.112-36.352-56.32-45.568-90.112-36.864-133.632 42.496-271.36 176.128-307.2zM158.208 645.12c-6.144-23.552 19.456-57.856 68.096-92.672 1.024 19.456 4.096 39.424 9.216 59.392 7.68 29.184 19.968 55.808 35.328 79.872-64-4.608-105.984-21.504-112.64-46.592z m418.816 134.144c-82.944 22.528-167.424 0-227.84-51.712 63.488-3.584 133.12-15.36 204.8-34.816s137.728-44.032 194.56-72.704c-26.624 75.264-88.576 137.216-171.52 159.232z m221.184-229.376c1.024-28.672-2.048-57.856-9.728-86.528-5.12-19.968-12.8-38.4-21.504-55.808 59.392 5.632 98.816 22.016 105.472 45.568 6.144 24.576-21.504 60.416-74.24 96.768z" fill="#d81e06" opacity=".5" p-id="6848"></path><path d="M457.728 335.872c-111.104 30.208-177.152 144.896-146.944 256s144.896 177.152 256 146.944 177.152-144.896 146.944-256-144.896-176.64-256-146.944z m134.656 91.136c2.56 9.728-3.072 19.456-12.8 22.016s-19.456-3.072-22.016-12.8 3.072-19.456 12.8-22.016c9.728-2.048 19.456 3.584 22.016 12.8z" fill="#d81e06" opacity=".2" p-id="6849"></path></svg>