<svg xmlns:xlink="http://www.w3.org/1999/xlink" xmlns="http://www.w3.org/2000/svg" version="1.1" viewBox="0 0 1631 1024"
    height="1024px" width="1631px">
    <title>缺省页-无日程安排备份</title>
    <g fill-rule="evenodd" fill="none" stroke-width="1" stroke="none" id="页面-1">
        <g transform="translate(0.500000, 0.000000)" id="缺省页-无日程安排备份">
            <g transform="translate(63.000000, 112.000000)" id="无权限">
                <path fill="#FFFFFF" stroke-width="7.16853592" stroke="#555555" id="矩形"
                    d="M222.788612,341.158651 L233.092376,87.1416557 C234.003971,64.6682618 252.076377,46.6920184 274.554315,45.9003353 L1207.84985,13.0292451 C1231.58957,12.1931215 1251.51222,30.7601538 1252.34835,54.4998724 C1252.36611,55.0043222 1252.375,55.5090456 1252.375,56.0138082 L1252.375,665.831517 C1252.375,737.094832 1194.60467,794.865164 1123.34135,794.865164 C1121.66329,794.865164 1119.98539,794.832429 1118.30861,794.766979 L769.668102,781.158475 L769.668102,781.158475 L234.708333,800 L234.708333,698.670167">
                </path>
                <path fill="#FFFFFF" stroke-width="7.16853592" stroke="#555555" id="矩形"
                    d="M1057.57129,284.692103 C1061.52398,284.46745 1065.19353,285.866211 1067.93108,288.309308 C1070.66862,290.752405 1072.47415,294.23984 1072.6988,298.192534 C1072.76636,299.381246 1072.68559,300.573744 1072.45834,301.742487 L1072.45834,301.742487 L1051.20853,411.031354 C1050.55357,414.399813 1048.75097,417.299978 1046.25421,419.358028 C1043.75746,421.416078 1040.56656,422.632013 1037.13502,422.632013 L1037.13502,422.632013 L585.879673,422.632013 C581.9206,422.632013 578.336332,421.027281 575.741832,418.432782 C573.147333,415.838282 571.542601,412.254014 571.542601,408.294941 L571.542601,408.294941 L571.542601,325.861115 C571.542601,322.060063 573.02602,318.589413 575.458171,316.015105 C577.890321,313.440797 581.271204,311.76283 585.066132,311.547144 L585.066132,311.547144 Z">
                </path>
                <path fill="#FFFFFF" stroke-width="7.16853592" stroke="#555555" id="矩形备份-3"
                    d="M1057.57129,456.736965 C1061.52398,456.512312 1065.19353,457.911073 1067.93108,460.35417 C1070.66862,462.797267 1072.47415,466.284702 1072.6988,470.237396 C1072.76636,471.426108 1072.68559,472.618606 1072.45834,473.787349 L1072.45834,473.787349 L1051.20853,583.076216 C1050.55357,586.444675 1048.75097,589.34484 1046.25421,591.40289 C1043.75746,593.46094 1040.56656,594.676875 1037.13502,594.676875 L1037.13502,594.676875 L585.879673,594.676875 C581.9206,594.676875 578.336332,593.072143 575.741832,590.477644 C573.147333,587.883144 571.542601,584.298876 571.542601,580.339803 L571.542601,580.339803 L571.542601,497.905977 C571.542601,494.104925 573.02602,490.634275 575.458171,488.059967 C577.890321,485.485659 581.271204,483.807692 585.066132,483.592006 L585.066132,483.592006 Z">
                </path>
                <ellipse ry="98.5673688" rx="98.5416667" cy="611.825932" cx="1006.91667" fill="#FFFFFF" id="椭圆形">
                </ellipse>
                <path fill="#F4F4F4" id="矩形"
                    d="M282.702225,55.6642012 L1213.06499,27.1953473 C1226.91527,26.7715326 1238.4867,37.6558276 1238.91052,51.5061005 C1238.91834,51.7618205 1238.92225,52.0176452 1238.92225,52.2734849 L1238.92225,197.842983 L1238.92225,197.842983 L234.708333,187.161339 L241.111436,95.6530156 C242.652964,73.6226597 260.628334,56.3396564 282.702225,55.6642012 Z">
                </path>
                <path fill-rule="nonzero" fill="#555555" id="路径-3"
                    d="M909.2276,104.500806 C908.431501,105.231171 907.654838,106.019287 906.89735,106.864724 C903.296833,110.882822 901.279316,116.035164 901.210206,121.38876 C901.050464,133.763239 911.129335,143.921989 923.721994,144.078964 L925.315379,144.026778 C936.305474,143.127123 948.221161,131.919468 950.691388,122.678526 C956.255,101.865456 926.544224,88.6140082 909.2276,104.500806 Z M943.796558,120.937585 C942.052687,127.392862 932.534375,136.251702 924.925933,136.870681 L923.678621,136.910428 C915.193386,136.801763 908.266502,129.893202 908.376287,121.477812 C908.423784,117.837044 909.810359,114.333142 912.284969,111.600494 C912.889198,110.933183 913.502272,110.317593 914.124002,109.753181 C926.257982,98.737847 946.304033,107.154113 944.030413,119.895334 L943.796558,120.937585 Z">
                </path>
                <path fill-rule="nonzero" fill="#555555" id="路径-3备份"
                    d="M1023.89427,104.500806 C1023.09817,105.231171 1022.3215,106.019287 1021.56402,106.864724 C1017.9635,110.882822 1015.94598,116.035164 1015.87687,121.38876 C1015.71713,133.763239 1025.796,143.921989 1038.38866,144.078964 L1039.98205,144.026778 C1050.97214,143.127123 1062.88783,131.919468 1065.35805,122.678526 C1070.92167,101.865456 1041.21089,88.6140082 1023.89427,104.500806 Z M1058.46322,120.937585 C1056.71935,127.392862 1047.20104,136.251702 1039.5926,136.870681 L1038.34529,136.910428 C1029.86005,136.801763 1022.93317,129.893202 1023.04295,121.477812 C1023.09045,117.837044 1024.47703,114.333142 1026.95164,111.600494 C1027.55586,110.933183 1028.16894,110.317593 1028.79067,109.753181 C1040.92465,98.737847 1060.9707,107.154113 1058.69708,119.895334 L1058.46322,120.937585 Z">
                </path>
                <path fill-rule="nonzero" fill="#555555" id="路径-3备份-2"
                    d="M1136.12321,101.996126 C1135.21338,102.838856 1134.32577,103.74822 1133.46007,104.723724 C1129.34519,109.359991 1127.03946,115.305001 1126.96047,121.482227 C1126.77791,135.760472 1138.29662,147.482107 1152.68823,147.663232 L1154.50924,147.603017 C1167.06935,146.564954 1180.68728,133.633044 1183.5104,122.970419 C1189.86881,98.9553385 1155.91364,83.6652061 1136.12321,101.996126 Z M1176.63087,120.972332 C1174.53822,128.862115 1163.11625,139.689587 1153.98612,140.446117 L1152.48935,140.494696 C1142.30706,140.361884 1133.9948,131.918087 1134.12654,121.63261 C1134.18354,117.182783 1135.84743,112.900236 1138.81696,109.560332 C1139.54204,108.74473 1140.27773,107.992342 1141.0238,107.302506 C1155.58458,93.8393193 1179.63984,104.125866 1176.9115,119.69847 L1176.63087,120.972332 Z">
                </path>
                <line stroke-width="7.16853592" stroke="#555555" id="路径-15" y2="212.180055" x2="1288.20833"
                    y1="197.842983" x1="234.708333"></line>
                <path stroke-width="35.8426796" stroke="rgb(244, 0, 46)" id="矩形备份"
                    d="M378.581972,298.202486 C392.247547,298.202486 404.825826,303.328775 414.375614,311.849365 C423.925402,320.369954 430.446699,332.284845 431.998312,345.862048 L431.998312,345.862048 L439.726237,413.48435 C441.411936,428.234865 436.959223,442.272214 428.397457,453.04336 C419.83569,463.814506 407.16487,471.319448 392.414355,473.005147 C391.942438,473.059078 391.469828,473.106753 390.996648,473.148159 L390.996648,473.148159 L370.736245,474.92106 C355.946238,476.215271 342.031818,471.392124 331.491346,462.547923 C320.950875,453.703722 313.784353,440.838466 312.490142,426.048459 C312.299628,423.871299 312.242042,421.684547 312.317704,419.500376 L312.317704,419.500376 L314.721636,350.105173 C315.223088,335.629562 321.413889,322.65389 331.1004,313.297121 C340.786911,303.940352 353.969132,298.202486 368.453426,298.202486 L368.453426,298.202486 Z">
                </path>
                <path fill="rgb(244, 0, 46)" id="矩形"
                    d="M212.003357,392.0281 L534.499619,418.425876 C538.219496,418.730365 541.083333,421.838199 541.083333,425.570517 L541.083333,611.003963 C541.083333,614.771357 538.167128,617.895904 534.408686,618.155465 L211.912425,640.427343 C207.962759,640.70011 204.539801,637.719395 204.267034,633.76973 C204.255681,633.605345 204.25,633.440617 204.25,633.275841 L204.25,399.172741 C204.25,395.213668 207.459463,392.004205 211.418536,392.004205 C211.61372,392.004205 211.808823,392.012177 212.003357,392.0281 Z">
                </path>
                <ellipse ry="25.0898757" rx="25.0833333" cy="531.610015" cx="392.375" fill="#FFFFFF" id="椭圆形"></ellipse>
                <polygon
                    points="382.341667 541.139419 402.883335 541.139419 410.023118 598.850882 377.758828 598.850882"
                    fill="#FFFFFF" id="矩形"></polygon>
                <g fill-rule="nonzero" fill="rgb(244, 0, 46)" transform="translate(883.291667, 484.584420)"
                    id="jinzhi-2">
                    <polygon
                        points="175.691426 28.2692588 204.25 46.9359889 84.1893905 211.652018 42.9999999 189.625696"
                        id="路径"></polygon>
                    <path id="形状"
                        d="M118.25,236.561685 C52.94375,236.561685 0,183.604126 0,118.280843 C0,52.957559 52.94375,0 118.25,0 C183.55625,0 236.5,52.957559 236.5,118.280843 C236.5,183.604126 183.55625,236.561685 118.25,236.561685 Z M118.25,211.652018 C152.815446,211.652018 184.755236,196.610823 202.037959,166.668461 C219.320682,136.726098 214.497116,103.431353 202.037959,73.9720957 C189.578802,44.5128383 152.815446,32.2584116 118.25,32.2584116 C64.816451,32.2584116 38.2211067,63.7285381 31.65222,118.280843 C25.0833333,172.833147 64.816451,211.652018 118.25,211.652018 Z">
                    </path>
                </g>
            </g>
        </g>
    </g>
</svg>